<svg xmlns="http://www.w3.org/2000/svg" viewBox="0 0 314.67 204.13"><defs><style>.cls-1{fill:#a5c3b2;}.cls-1,.cls-2,.cls-3{stroke:#fff;stroke-miterlimit:10;stroke-width:1.5px;}.cls-2{fill:none;}.cls-3{fill:#a5c2b1;}.cls-4{font-size:52.36px;fill:#1d1d1b;font-family:LobsterTwo, Lobster Two;}.cls-5{letter-spacing:-0.03em;}</style></defs><g id="Calque_2" data-name="Calque 2"><g id="Calque_7" data-name="Calque 7"><path class="cls-1" d="M157.34.75c-39.58,0-71.67,31.12-71.67,69.5s32.09,69.5,71.67,69.5S229,108.63,229,70.25,196.92.75,157.34.75ZM178.93,105c-2.7,1.68-19.23,4.2-21.61,2.44-14.16-7.2-23.49-2.26-27,.5a2.09,2.09,0,0,1-2.86-.28l-6.54-7.43a2.17,2.17,0,0,1,0-2.91,102.49,102.49,0,0,1,8.5-8.17,16.71,16.71,0,0,1,8.56-4c9-1.32,23.1-.12,28.59,1.28a6.71,6.71,0,0,0,2.82.13c4.78-.82,6.36-1.59,10,.39a2.89,2.89,0,0,1,1,4.12c-2.57,3.69-12.13,3.7-18.95,4.74,0,3,13.38,1.77,17.86.66,5-2.88,9.13-9.42,14.72-6C196.58,96,181.15,103,178.93,105Z"/><path class="cls-1" d="M156.71,15C122.78,15,95.27,41.44,95.27,74.1s27.51,59.13,61.44,59.13,61.44-26.47,61.44-59.13S190.65,15,156.71,15Zm22.22,90c-2.7,1.68-19.23,4.2-21.61,2.44-14.16-7.2-23.49-2.26-27,.5a2.09,2.09,0,0,1-2.86-.28l-6.54-7.43a2.17,2.17,0,0,1,0-2.91,102.49,102.49,0,0,1,8.5-8.17,16.71,16.71,0,0,1,8.56-4c9-1.32,23.1-.12,28.59,1.28a6.71,6.71,0,0,0,2.82.13c4.78-.82,6.36-1.59,10,.39a2.89,2.89,0,0,1,1,4.12c-2.57,3.69-12.13,3.7-18.95,4.74,0,3,13.38,1.77,17.86.66,5-2.88,9.13-9.42,14.72-6C196.58,96,181.15,103,178.93,105Z"/><path class="cls-2" d="M157.38,42.63s9.88-10.08,15.8-2.22a10.86,10.86,0,0,1,.58,11.88c-6.45,11.37-14.46,14.41-16.38,16.34-1.93-1.93-10-5-16.47-16.34a10.88,10.88,0,0,1,.59-11.88C147.43,32.55,157.38,42.63,157.38,42.63Z"/><path class="cls-3" d="M178.93,105c-2.7,1.68-19.23,4.2-21.61,2.44-14.16-7.2-23.49-2.26-27,.5a2.09,2.09,0,0,1-2.86-.28l-6.54-7.43a2.17,2.17,0,0,1,0-2.91,102.49,102.49,0,0,1,8.5-8.17,16.71,16.71,0,0,1,8.56-4c9-1.32,23.1-.12,28.59,1.28a6.71,6.71,0,0,0,2.82.13c4.78-.82,6.36-1.59,10,.39a2.89,2.89,0,0,1,1,4.12c-2.57,3.69-12.13,3.7-18.95,4.74,0,3,13.38,1.77,17.86.66,5-2.88,9.13-9.42,14.72-6C196.58,96,181.15,103,178.93,105Z"/><text class="cls-4" transform="translate(0 191.04)">Orphelinat <tspan class="cls-5" x="216.45" y="0">P</tspan><tspan x="246.08" y="0">erle</tspan></text></g></g></svg>