<svg xmlns="http://www.w3.org/2000/svg" viewBox="0 0 314.67 204.13"><defs><style>.cls-1,.cls-4,.cls-5{fill:#1d1d1b;}.cls-1,.cls-2{stroke:#fff;stroke-linejoin:bevel;stroke-width:1.5px;}.cls-2{fill:none;}.cls-3{fill:#fff;}.cls-5{font-size:52.36px;font-family:LobsterTwo, Lobster Two;}.cls-6{letter-spacing:-0.03em;}</style></defs><g id="Calque_2" data-name="Calque 2"><g id="Calque_7" data-name="Calque 7"><path class="cls-1" d="M157.34.75c-39.58,0-71.67,31.12-71.67,69.5s32.09,69.5,71.67,69.5S229,108.63,229,70.25,196.92.75,157.34.75ZM178.93,105c-2.7,1.68-19.23,4.2-21.61,2.44-14.16-7.2-23.49-2.26-27,.5a2.09,2.09,0,0,1-2.86-.28l-6.54-7.43a2.17,2.17,0,0,1,0-2.91,102.49,102.49,0,0,1,8.5-8.17,16.71,16.71,0,0,1,8.56-4c9-1.32,23.1-.12,28.59,1.28a6.71,6.71,0,0,0,2.82.13c4.78-.82,6.36-1.59,10,.39a2.89,2.89,0,0,1,1,4.12c-2.57,3.69-12.13,3.7-18.95,4.74,0,3,13.38,1.77,17.86.66,5-2.88,9.13-9.42,14.72-6C196.58,96,181.15,103,178.93,105Z"/><path class="cls-1" d="M156.71,15C122.78,15,95.27,41.44,95.27,74.1s27.51,59.13,61.44,59.13,61.44-26.47,61.44-59.13S190.65,15,156.71,15Zm22.22,90c-2.7,1.68-19.23,4.2-21.61,2.44-14.16-7.2-23.49-2.26-27,.5a2.09,2.09,0,0,1-2.86-.28l-6.54-7.43a2.17,2.17,0,0,1,0-2.91,102.49,102.49,0,0,1,8.5-8.17,16.71,16.71,0,0,1,8.56-4c9-1.32,23.1-.12,28.59,1.28a6.71,6.71,0,0,0,2.82.13c4.78-.82,6.36-1.59,10,.39a2.89,2.89,0,0,1,1,4.12c-2.57,3.69-12.13,3.7-18.95,4.74,0,3,13.38,1.77,17.86.66,5-2.88,9.13-9.42,14.72-6C196.58,96,181.15,103,178.93,105Z"/><path class="cls-2" d="M157.38,42.63s9.88-10.08,15.8-2.22a10.86,10.86,0,0,1,.58,11.88c-6.45,11.37-14.46,14.41-16.38,16.34-1.93-1.93-10-5-16.47-16.34a10.88,10.88,0,0,1,.59-11.88C147.43,32.55,157.38,42.63,157.38,42.63Z"/><path class="cls-3" d="M129,108.89a2.64,2.64,0,0,1-2-.89l-6.54-7.43a2.66,2.66,0,0,1,0-3.57,102.87,102.87,0,0,1,8.54-8.22,17.09,17.09,0,0,1,8.81-4.1,64.92,64.92,0,0,1,9.35-.58A92.7,92.7,0,0,1,166.68,86a6.47,6.47,0,0,0,2.61.12l2-.36a21.87,21.87,0,0,1,3.85-.51,9.05,9.05,0,0,1,4.52,1.31,3.54,3.54,0,0,1,1.7,2.28,3.19,3.19,0,0,1-.48,2.57c-2.11,3-8.3,3.69-14.28,4.34-1.53.16-3,.32-4.36.51.58.5,2.3,1,5.81,1A55.85,55.85,0,0,0,179.14,96a31.57,31.57,0,0,0,4-3C185.69,91,188.09,89,190.9,89a6.54,6.54,0,0,1,3.41,1l.19.22c2.11,4.6-6.29,9.63-11.84,13a27.91,27.91,0,0,0-3.39,2.19c-2.28,1.42-12.43,3.17-18.18,3.17-2.11,0-3.44-.23-4.07-.7a30.71,30.71,0,0,0-13.8-3.64,20.28,20.28,0,0,0-12.6,4.13A2.53,2.53,0,0,1,129,108.89Z"/><path class="cls-4" d="M147.24,84.6c7.54,0,15.5.88,19.32,1.85a6.65,6.65,0,0,0,1.72.22,6.89,6.89,0,0,0,1.1-.09,38.35,38.35,0,0,1,5.71-.86A8.46,8.46,0,0,1,179.37,87a2.89,2.89,0,0,1,1,4.12c-2.57,3.69-12.13,3.7-18.95,4.74,0,1.39,2.95,1.86,6.53,1.86a56.17,56.17,0,0,0,11.33-1.2c4-2.31,7.48-7,11.57-7a6,6,0,0,1,3.15,1C196.58,96,181.15,103,178.93,105c-2.05,1.28-12.09,3-17.84,3a7.66,7.66,0,0,1-3.77-.6,31,31,0,0,0-14.1-3.73A20.83,20.83,0,0,0,130.31,108a2,2,0,0,1-1.27.44,2.13,2.13,0,0,1-1.59-.72l-6.54-7.43a2.17,2.17,0,0,1,0-2.91,102.49,102.49,0,0,1,8.5-8.17,16.71,16.71,0,0,1,8.56-4,66.37,66.37,0,0,1,9.27-.57m0-1a67.35,67.35,0,0,0-9.42.58,17.63,17.63,0,0,0-9.07,4.23,104.93,104.93,0,0,0-8.59,8.25,3.19,3.19,0,0,0,0,4.25l6.54,7.42a3.11,3.11,0,0,0,2.34,1.06,3,3,0,0,0,1.89-.66,19.74,19.74,0,0,1,12.29-4,30.15,30.15,0,0,1,13.58,3.59c.49.33,1.49.74,4.29.74,5.82,0,16.11-1.79,18.37-3.19l.14-.11a28.43,28.43,0,0,1,3.32-2.13c5.7-3.42,14.33-8.58,12-13.59l-.4-.44a7,7,0,0,0-3.66-1.09c-3,0-5.57,2.12-8.06,4.17A30.23,30.23,0,0,1,179,95.55,55.28,55.28,0,0,1,168,96.69a23.64,23.64,0,0,1-3.63-.23l2.23-.25c6.1-.65,12.4-1.33,14.64-4.55a3.68,3.68,0,0,0,.56-3,4,4,0,0,0-1.94-2.6,9.53,9.53,0,0,0-4.77-1.38,21.6,21.6,0,0,0-3.94.52l-1.94.35a4.87,4.87,0,0,1-.93.08,5.65,5.65,0,0,1-1.47-.19,93.93,93.93,0,0,0-19.57-1.88Z"/><text class="cls-5" transform="translate(0 191.04)">Orphelinat <tspan class="cls-6" x="216.45" y="0">P</tspan><tspan x="246.08" y="0">erle</tspan></text></g></g></svg>